<?xml version="1.0" encoding="utf-8"?>
<!-- Generator: Adobe Illustrator 23.0.3, SVG Export Plug-In . SVG Version: 6.00 Build 0)  -->
<svg version="1.1" id="Capa_1" xmlns="http://www.w3.org/2000/svg" xmlns:xlink="http://www.w3.org/1999/xlink" x="0px" y="0px"
	 viewBox="0 0 1361 1339.4" style="enable-background:new 0 0 1361 1339.4;" xml:space="preserve">
<style type="text/css">
	.st0{fill:#E9EAEB;}
	.st1{fill:#BCC0C4;}
	.st2{fill:#2A5082;}
	.st3{fill:#A3D4FF;}
	.st4{fill:#FFFFFF;}
</style>
<path class="st0" d="M152,1070c150.2,140.7,386,133.1,526.8-17.1s133.1-386-17.1-526.8l0,0c-150.2-140.7-386-133.1-526.8,17.1
	S1.8,929.1,152,1070C152,1069.9,152,1069.9,152,1070L152,1070z"/>
<path class="st1" d="M73.3,817.7h58.8v39.2H73.3V817.7z M210.6,817.7h58.8v39.2h-58.8V817.7z M151.8,876.5H191v58.8h-39.2V876.5z
	 M151.8,739.2H191V798h-39.2V739.2z M138.2,273.9l38.8-38.8l27.7,27.7l-38.8,38.8L138.2,273.9z M236.3,175.9l38.8-38.8l27.7,27.7
	L264,203.6L236.3,175.9z M236.3,262.9l27.7-27.7l38.8,38.8l-27.8,27.7L236.3,262.9z M138.2,164.8l27.7-27.7l38.8,38.8L177,203.6
	L138.2,164.8z M1132.5,52.7h39.2v39.2h-39.2V52.7z M1132.5,131.1h39.2v39.2h-39.2V131.1z M1093.3,91.9h39.2v39.2h-39.2V91.9z
	 M1171.7,91.9h39.2v39.2h-39.2V91.9z M563.7,268.4h-39.2V72.3h451.1v78.5h-39.2v-39.2H563.7V268.4z"/>
<path class="st0" d="M465.6,327.3h353.1v137.3H465.6V327.3z"/>
<path class="st2" d="M838.3,464.6H799V346.9H485.2v117.7H446V307.7h392.3L838.3,464.6z"/>
<path class="st3" d="M681.4,209.6v117.7h137.3v137.3h255v-255H681.4z"/>
<path class="st2" d="M1093.3,464.6H1054V229.2H701v78.5h137.3v156.9H799V346.9H661.7V190h431.5L1093.3,464.6z"/>
<path class="st4" d="M1132.5,523.4H289.1l176.5,411.9h510c41.2,0,78.5-25.5,90.2-64.7l100-304C1173.7,545,1154.1,523.4,1132.5,523.4
	L1132.5,523.4z"/>
<path class="st2" d="M975.6,955h-510v-39.2h510c33.3,0,62.8-21.6,72.6-53l100-304c0-2,0-5.9-2-7.8c-3.9-3.9-9.8-7.8-13.7-7.8h-765
	v-39.2h765c17.7,0,35.3,9.8,45.1,23.5c9.8,13.7,11.8,29.4,7.8,43.2l-100,306C1069.7,923.6,1026.6,955,975.6,955L975.6,955z"/>
<path class="st1" d="M563.7,582.3h39.2v274.6h-39.2L563.7,582.3z M720.6,582.3h39.2v274.6h-39.2V582.3z M877.5,582.3h39.2v274.6
	h-39.2V582.3z"/>
<path class="st1" d="M524.4,758.8H956V798H524.4V758.8z M465.6,641.1h529.6v39.2H465.6V641.1z"/>
<path class="st2" d="M1014.8,1092.3H563.7c-33.3,0-60.8-17.7-76.5-51c-11.8-25.5-151-349.1-233.4-539.4
	c-9.8-23.5-33.3-37.3-56.9-37.3H53.7v-39.2h141.2c41.2,0,76.5,23.5,94.1,60.8c141.2,327.6,223.6,519.8,233.4,537.4
	c7.8,17.7,23.5,27.5,41.2,27.5h451.1L1014.8,1092.3L1014.8,1092.3z"/>
<path class="st3" d="M465.6,1190.3c0,32.5,26.3,58.8,58.8,58.8c32.5,0,58.8-26.3,58.8-58.8s-26.3-58.8-58.8-58.8
	C491.9,1131.5,465.6,1157.8,465.6,1190.3z"/>
<path class="st2" d="M524.4,1268.8c-43.2,0-78.5-35.3-78.5-78.5s35.3-78.5,78.5-78.5s78.5,35.3,78.5,78.5S567.6,1268.8,524.4,1268.8
	L524.4,1268.8z M524.4,1151.1c-21.6,0-39.2,17.7-39.2,39.2c0,21.6,17.7,39.2,39.2,39.2c21.6,0,39.2-17.7,39.2-39.2
	C563.7,1168.7,546,1151.1,524.4,1151.1L524.4,1151.1z"/>
<path class="st3" d="M1036.4,1190.3c0,33.3-25.5,58.8-58.8,58.8s-58.8-25.5-58.8-58.8c0-33.3,25.5-58.8,58.8-58.8
	C1008.9,1131.5,1036.4,1157,1036.4,1190.3z"/>
<path class="st2" d="M977.5,1268.8c-43.2,0-78.5-35.3-78.5-78.5s35.3-78.5,78.5-78.5s78.5,35.3,78.5,78.5
	S1020.7,1268.8,977.5,1268.8L977.5,1268.8z M977.5,1151.1c-21.6,0-39.2,17.7-39.2,39.2c0,21.6,17.7,39.2,39.2,39.2
	c21.6,0,39.2-17.7,39.2-39.2C1016.8,1168.7,999.1,1151.1,977.5,1151.1z"/>
</svg>
